#!OML:ASF F:\VICON\USERDATA\INSTALL\rory3\rory3.ASF
:FULLY-SPECIFIED
:DEGREES
358
root 2.41277 17.4752 8.54344 -182.279 -4.38058 177.791
lowerback 11.925 1.33133 1.16433
upperback -0.570219 1.96107 0.944759
thorax -7.2989 0.910236 -0.00871789
lowerneck -20.0348 -3.02191 -11.915
upperneck 34.4536 -5.19626 7.2037
head 16.1668 -3.55647 3.97016
rclavicle 5.36719e-015 -1.43125e-014
rhumerus -33.9692 -16.6435 -70.3516
rradius 32.5376
rwrist 6.47441
rhand -15.2851 7.47148
rfingers 7.12502
rthumb 10.8898 -22.2262
lclavicle 5.36719e-015 -1.43125e-014
lhumerus -35.9857 10.4948 80.6581
lradius 32.8521
lwrist -6.65542
lhand -21.4416 25.4565
lfingers 7.12502
lthumb 4.94792 55.3787
rfemur 1.04241 7.81928 5.00381
rtibia 24.3986
rfoot -20.0824 1.22887
rtoes -22.2399
lfemur 0.104183 -11.9351 -4.24264
ltibia 17.4324
lfoot -7.0513 -13.8044
ltoes -29.2471
359
root 2.27554 17.4611 8.5432 -182.311 -4.15343 177.722
lowerback 11.9885 1.35727 1.02914
upperback -0.601784 1.98162 0.98768
thorax -7.37486 0.9258 0.107092
lowerneck -20.0283 -3.01272 -11.942
upperneck 34.3815 -5.17795 7.25818
head 16.1295 -3.54028 4.00117
rclavicle -8.87077e-015 7.95139e-016
rhumerus -33.9713 -17.1951 -69.8937
rradius 32.1651
rwrist 7.04717
rhand -15.3047 7.52442
rfingers 7.12502
rthumb 10.8708 -22.1742
lclavicle -8.87077e-015 7.95139e-016
lhumerus -35.9376 10.405 80.8539
lradius 32.7718
lwrist -6.57532
lhand -20.8934 25.1775
lfingers 7.12502
lthumb 5.47731 55.0867
rfemur 1.11368 8.49282 4.60019
rtibia 24.2733
rfoot -19.7877 0.680649
rtoes -21.8541
lfemur 0.380074 -11.3856 -4.82563
ltibia 17.557
lfoot -8.31024 -13.4772
ltoes -31.0014
360
root 2.13589 17.4503 8.54072 -182.326 -3.95925 177.631
lowerback 11.9593 1.37225 0.903641
upperback -0.572921 1.98281 0.996309
thorax -7.33201 0.931551 0.187752
lowerneck -20.1523 -3.0339 -11.8043
upperneck 34.3836 -5.18984 7.13479
head 16.1528 -3.53813 3.91957
rclavicle 1.22998e-014 -1.59028e-014
rhumerus -33.8375 -17.8127 -69.5292
rradius 31.7375
rwrist 7.62748
rhand -15.314 7.69426
rfingers 7.12502
rthumb 10.8619 -22.0048
lclavicle 1.22998e-014 -1.59028e-014
lhumerus -35.7692 10.2697 81.0515
lradius 32.6574
lwrist -6.34946
lhand -19.7105 22.8143
lfingers 7.12502
lthumb 6.61932 52.6909
rfemur 1.16716 9.20413 4.16703
rtibia 24.1267
rfoot -19.4165 0.163799
rtoes -21.5365
lfemur 0.658109 -10.7766 -5.46266
ltibia 17.6599
lfoot -9.47639 -13.0255
ltoes -32.007
361
root 1.9948 17.4394 8.54226 -182.351 -3.82128 177.408
lowerback 11.9423 1.38816 0.632473
upperback -0.543807 1.96442 0.987412
thorax -7.30012 0.933206 0.335127
lowerneck -20.1781 -3.03129 -11.7471
upperneck 34.4259 -5.22713 7.14753
head 16.1832 -3.54926 3.90792
rclavicle 9.67833e-015 0
rhumerus -33.86 -18.1539 -69.2618
rradius 31.5826
rwrist 7.73819
rhand -15.5977 8.0853
rfingers 7.12502
rthumb 10.5883 -21.628
lclavicle 9.67833e-015 0
lhumerus -35.6175 10.2201 81.2104
lradius 32.4899
lwrist -6.37763
lhand -21.433 25.2439
lfingers 7.12502
lthumb 4.95627 55.166
rfemur 1.30857 9.87824 3.55272
rtibia 23.9065
rfoot -19.0648 -0.213413
rtoes -21.3171
lfemur 0.831732 -10.1636 -6.28676
ltibia 17.8089
lfoot -10.3781 -12.5109
ltoes -33.0503
362
root 1.85431 17.4323 8.5481 -182.38 -3.80762 177.211
lowerback 11.9539 1.37525 0.42047
upperback -0.523585 1.9164 0.977987
thorax -7.29161 0.917817 0.45322
lowerneck -20.1713 -3.00792 -11.7896
upperneck 34.4312 -5.23971 7.28995
head 16.1919 -3.5438 3.97628
rclavicle 3.25758e-014 1.43125e-014
rhumerus -33.9966 -18.4187 -69.0196
rradius 31.6549
rwrist 7.69959
rhand -16.2414 8.91721
rfingers 7.12502
rthumb 9.96727 -20.8268
lclavicle 3.25758e-014 1.43125e-014
lhumerus -35.4955 10.2993 81.3233
lradius 32.3123
lwrist -6.74569
lhand -21.9344 25.9686
lfingers 7.12502
lthumb 4.47209 55.9013
rfemur 1.56158 10.4285 2.98687
rtibia 23.6187
rfoot -18.6737 -0.637611
rtoes -21.4781
lfemur 0.837799 -9.59559 -7.10551
ltibia 18.033
lfoot -11.3706 -11.8832
ltoes -36.2321
363
root 1.71221 17.4276 8.55491 -182.321 -3.80082 177.179
lowerback 11.9546 1.32369 0.414835
upperback -0.563795 1.85048 1.00567
thorax -7.33569 0.886739 0.49705
lowerneck -20.2602 -2.95881 -11.7867
upperneck 34.4974 -5.17037 7.30699
head 16.2367 -3.51529 3.99876
rclavicle -1.95554e-014 1.66979e-014
rhumerus -34.214 -18.844 -68.7097
rradius 31.8099
rwrist 8.03391
rhand -16.8886 9.69706
rfingers 7.12502
rthumb 9.34281 -20.0759
lclavicle -1.95554e-014 1.66979e-014
lhumerus -35.4116 10.4509 81.4312
lradius 32.1208
lwrist -6.91851
lhand -21.2532 25.6543
lfingers 7.12502
lthumb 5.1299 55.5723
rfemur 1.71491 10.7964 2.57278
rtibia 23.3204
rfoot -18.0368 -1.15717
rtoes -21.8977
lfemur 0.715166 -8.98708 -7.73437
ltibia 18.2882
lfoot -12.9243 -10.8611
ltoes -41.7727
364
root 1.57059 17.426 8.55937 -182.298 -3.71163 177.144
lowerback 11.9548 1.29677 0.398378
upperback -0.601921 1.81556 1.03
thorax -7.37761 0.871153 0.537918
lowerneck -20.2345 -2.91765 -11.7325
upperneck 34.5285 -5.10671 7.20828
head 16.2315 -3.50062 3.9578
rclavicle 1.03865e-014 -5.56597e-015
rhumerus -34.4823 -19.3474 -68.3793
rradius 31.8825
rwrist 8.23196
rhand -17.0396 10.2501
rfingers 7.12502
rthumb 9.19718 -19.5293
lclavicle 1.03865e-014 -5.56597e-015
lhumerus -35.3293 10.5991 81.5179
lradius 31.888
lwrist -6.9622
lhand -20.132 24.5277
lfingers 7.12502
lthumb 6.21234 54.4166
rfemur 1.85332 11.1713 2.14456
rtibia 23.0054
rfoot -17.2645 -1.65004
rtoes -22.1405
lfemur 0.724515 -8.42602 -8.39232
ltibia 18.5859
lfoot -12.3119 -10.9711
ltoes -25.014
